<?xml version="1.0" encoding="UTF-8"?>
<svg width="458px" height="240px" viewBox="0 0 458 240" version="1.1" xmlns="http://www.w3.org/2000/svg" xmlns:xlink="http://www.w3.org/1999/xlink">
    <title>BEX_MAin</title>
    <g id="BEX_MAin" stroke="none" stroke-width="1" fill="none" fill-rule="evenodd">
        <g id="Group" transform="translate(185.000000, 58.000000)" fill="#5405BD">
            <path d="M88,53.7832075 L67.4541097,53.7832075 L67.4541097,93.0012516 C67.4541097,102.723181 74.5459204,102.90312 88,102.182709 L88,123.246672 C55.8185792,126.847411 44,117.665296 44,93.0012516 L44,0 L67.4541097,0 L67.4541097,31.4590194 L88,31.4590194 L88,53.7832075 Z" id="Fill-4"></path>
            <path d="M23.3469388,42.2318841 C23.3469388,48.6829446 18.1207859,53.9130435 11.6731454,53.9130435 C5.22615286,53.9130435 0,48.6829446 0,42.2318841 C0,35.7808235 5.22615286,30.5507246 11.6731454,30.5507246 C18.1207859,30.5507246 23.3469388,35.7808235 23.3469388,42.2318841" id="Fill-6"></path>
            <path d="M23.3469388,75.4782609 C23.3469388,81.9293214 18.1207859,87.1594203 11.6731454,87.1594203 C5.22615286,87.1594203 0,81.9293214 0,75.4782609 C0,69.0272004 5.22615286,63.7971014 11.6731454,63.7971014 C18.1207859,63.7971014 23.3469388,69.0272004 23.3469388,75.4782609" id="Fill-8"></path>
            <path d="M23.3469388,106.927212 C23.3469388,113.378452 18.1207859,118.608696 11.6731454,118.608696 C5.22615286,118.608696 0,113.378452 0,106.927212 C0,100.475972 5.22615286,95.2463768 11.6731454,95.2463768 C18.1207859,95.2463768 23.3469388,100.475972 23.3469388,106.927212" id="Fill-10"></path>
        </g>
    </g>
</svg>