<svg xmlns="http://www.w3.org/2000/svg" viewBox="0 0 512 512"><defs><style>.cls-1{fill:#fff;}.cls-2{fill:#5405bd;fill-rule:evenodd;}</style></defs><g id="Layer_1" data-name="Layer 1"><rect class="cls-1" width="512" height="512"/><path class="cls-2" d="M346.99982,227.71118H301.70551V315.003c0,21.6391,15.63422,22.0396,45.29431,20.4361v46.88429c-70.9454,8.0146-97-12.423-97-67.32039V108.00018h51.70569v70.0217h45.29431Z"/><path class="cls-2" d="M203.99982,201.00018a26,26,0,1,1-26.0007-26,26.00022,26.00022,0,0,1,26.0007,26"/><path class="cls-2" d="M203.99982,275.00018a26,26,0,1,1-26.0007-26,26.00022,26.00022,0,0,1,26.0007,26"/><path class="cls-2" d="M203.99982,346.99947a26,26,0,1,1-26.0007-25.99929,26.00055,26.00055,0,0,1,26.0007,25.99929"/></g></svg>