<svg xmlns="http://www.w3.org/2000/svg" viewBox="0 0 512 512"><defs><style>.cls-1{fill:#fff;}.cls-1,.cls-2{fill-rule:evenodd;}.cls-2{fill:#5405bd;}</style></defs><g id="Layer_1" data-name="Layer 1"><path class="cls-1" d="M110.93333,0H401.06662A110.93444,110.93444,0,0,1,512,110.93338V401.06667A110.93444,110.93444,0,0,1,401.06662,512H110.93333A110.93444,110.93444,0,0,1,0,401.06667V110.93338A110.93444,110.93444,0,0,1,110.93333,0"/><path class="cls-2" d="M346.99982,227.71118H301.70551V315.003c0,21.6391,15.63422,22.0396,45.29431,20.4361v46.88429c-70.9454,8.0146-97-12.423-97-67.32039V108.00018h51.70569v70.0217h45.29431Z"/><path class="cls-2" d="M203.99982,201.00018a26,26,0,1,1-26.0007-26,26.00022,26.00022,0,0,1,26.0007,26"/><path class="cls-2" d="M203.99982,275.00018a26,26,0,1,1-26.0007-26,26.00022,26.00022,0,0,1,26.0007,26"/><path class="cls-2" d="M203.99982,346.99947a26,26,0,1,1-26.0007-25.99929,26.00055,26.00055,0,0,1,26.0007,25.99929"/></g></svg>